<svg viewBox="744.524 768.981 12684.2 12592.4" xmlns="http://www.w3.org/2000/svg">
<g>
<path d="M7406.25 9020.11L4014.95 1436.75L4015 1436.91C3874.89 1123.61 3716.29 768.983 3203.97 768.983L1119.91 768.983L1119.91 768.983C1039.7 768.984 864.877 768.982 794.923 768.981L794.923 768.982C767.002 769.006 744.524 792.585 744.524 821.89L744.524 991.053C744.524 1020.37 767.019 1043.98 794.96 1043.98C1300.13 1047.43 1401.14 1397.87 1540.32 1709.08L6763.04 13361.3L11977.1 1701.01C12115.4 1391.83 12218 1047.41 12718.8 1043.97C12746.7 1043.97 12769.2 1020.37 12769.2 991.051L12769.2 821.887C12769.2 792.587 12746.8 769.014 12718.8 768.983L12783.5 768.983L12783.5 768.981L11601.4 768.988C11095.7 772.702 10937.3 1124.19 10798 1435.7L7406.25 9020.11Z" fill="#145F64"></path>
<path d="M8601.99 3442.8L7704.97 1436.96C7704.95 1436.91 7704.93 1436.87 7704.91 1436.82C7564.81 1123.56 7406.19 769.04 6893.94 769.04L6893.94 768.993L5551.38 768.983L5551.37 768.983C5471.17 768.983 5296.34 768.981 5226.39 768.981L5226.38 768.981C5198.46 768.981 5175.99 792.585 5175.99 821.885L5175.99 991.049C5175.99 1020.37 5198.48 1043.97 5226.42 1043.97C5223.92 1043.95 5228.94 1043.97 5226.42 1043.97C5738.05 1043.97 5837.31 1408.38 5977.28 1721.35L7674.55 5516.66L8601.99 3442.8Z" fill="#145F64"></path>
<path d="M10549.4 7797.46L9621.98 9871.33C8704.45 11923 10441.2 13361.3 11182.7 13361.3L13037.6 13361.4L13037.6 13361.3L13379.8 13361.3C13407 13360.4 13428.7 13337.5 13428.7 13308.7L13428.7 13139.6C13428.7 13110.3 13406.2 13086.7 13378.3 13086.7L13418.7 13086.7C11835.8 12442.5 10709.1 8180.32 10872.8 7726.72L10871.3 7730.24C10883 7703.6 10871.8 7672.24 10846 7659.92L10697.7 7588.86C10672 7576.54 10641.9 7588.07 10630.1 7614.68L10549.4 7797.46Z" fill="#145F64"></path>
</g>
</svg>