<?xml version="1.0" encoding="UTF-8" standalone="no"?>


<svg height="100%" stroke-miterlimit="10" style="fill-rule:nonzero;clip-rule:evenodd;stroke-linecap:round;stroke-linejoin:round;" version="1.1" viewBox="90.1052 381.871 2654.79 653.758" width="100%" xml:space="preserve" xmlns="http://www.w3.org/2000/svg" xmlns:vectornator="http://vectornator.io" xmlns:xlink="http://www.w3.org/1999/xlink">
<defs></defs>
<g id="Layer">
<g opacity="1">
<g opacity="1">
<path d="M397.299 823.784L240.915 453.728L240.917 453.735C234.456 438.447 227.143 421.141 203.518 421.141L107.415 421.141L107.415 421.141C103.717 421.141 95.655 421.141 92.4292 421.141L92.4292 421.141C91.1417 421.143 90.1052 422.293 90.1052 423.723L90.1052 431.978C90.1052 433.409 91.1425 434.561 92.4309 434.561C115.726 434.729 120.384 451.83 126.802 467.017L367.638 1035.63L608.073 466.623C614.452 451.536 619.183 434.728 642.277 434.561C643.565 434.561 644.603 433.409 644.603 431.978L644.603 423.723C644.603 422.293 643.566 421.143 642.279 421.141L645.259 421.141L645.259 421.141L590.748 421.142C567.433 421.323 560.129 438.475 553.705 453.676L397.299 823.784Z" fill="#C9A96E" fill-rule="evenodd" opacity="1" stroke="none"></path>
<path d="M452.438 551.62L411.074 453.738C411.073 453.735 411.072 453.733 411.071 453.731C404.61 438.444 397.296 421.144 373.674 421.144L373.674 421.142L311.764 421.141L311.764 421.141C308.066 421.141 300.004 421.141 296.778 421.141L296.778 421.141C295.49 421.141 294.454 422.293 294.454 423.723L294.454 431.978C294.454 433.409 295.491 434.56 296.78 434.56C296.665 434.56 296.896 434.56 296.78 434.56C320.373 434.56 324.95 452.343 331.404 467.616L409.671 652.821L452.438 551.62Z" fill="#C9A96E" fill-rule="evenodd" opacity="1" stroke="none"></path>
<path d="M542.24 764.12L499.473 865.322C457.163 965.442 537.25 1035.63 571.444 1035.63L656.978 1035.63L656.978 1035.63L672.758 1035.63C674.012 1035.58 675.013 1034.46 675.013 1033.06L675.013 1024.81C675.013 1023.38 673.976 1022.22 672.688 1022.22L674.554 1022.22C601.559 990.791 549.605 782.803 557.153 760.668L557.082 760.84C557.623 759.54 557.104 758.009 555.919 757.408L549.078 753.941C547.893 753.34 546.504 753.902 545.962 755.2L542.24 764.12Z" fill="#C9A96E" fill-rule="evenodd" opacity="1" stroke="none"></path>
</g>
<path d="M899.812 593.257L899.812 649.72C922.211 625.455 943.676 607.801 964.208 596.757C984.74 585.713 1006.83 580.191 1030.47 580.191C1058.78 580.191 1082.27 588.047 1100.93 603.757C1119.6 619.467 1132.04 638.988 1138.26 662.32C1143.24 680.052 1145.73 714.116 1145.73 764.513L1145.73 934.369C1145.73 967.967 1148.76 988.888 1154.83 997.132C1160.9 1005.38 1173.57 1010.59 1192.86 1012.76L1192.86 1029.56L972.141 1029.56L972.141 1012.76C988.629 1010.59 1000.45 1003.74 1007.61 992.232C1012.58 984.455 1015.07 965.167 1015.07 934.369L1015.07 740.248C1015.07 704.472 1013.67 681.918 1010.87 672.586C1008.07 663.253 1003.33 656.02 996.639 650.887C989.951 645.754 982.562 643.187 974.474 643.187C947.72 643.187 922.833 662.32 899.812 700.584L899.812 934.369C899.812 967.034 902.845 987.721 908.911 996.432C914.978 1005.14 926.255 1010.59 942.743 1012.76L942.743 1029.56L722.023 1029.56L722.023 1012.76C740.378 1010.9 753.443 1004.99 761.221 995.032C766.509 988.188 769.154 967.967 769.154 934.369L769.154 687.985C769.154 655.009 766.12 634.477 760.054 626.389C753.988 618.3 741.311 613.012 722.023 610.523L722.023 593.257L899.812 593.257Z" fill="#C9A96E" fill-rule="nonzero" opacity="1" stroke="none"></path>
<path d="M1493.84 965.167C1440.64 1012.14 1392.89 1035.63 1350.58 1035.63C1325.7 1035.63 1305.01 1027.46 1288.52 1011.13C1272.03 994.799 1263.79 974.344 1263.79 949.768C1263.79 916.481 1278.1 886.539 1306.72 859.94C1335.34 833.342 1397.71 797.955 1493.84 753.78L1493.84 709.917C1493.84 676.941 1492.05 656.176 1488.47 647.621C1484.9 639.066 1478.13 631.599 1468.18 625.222C1458.22 618.845 1447.02 615.656 1434.58 615.656C1414.36 615.656 1397.71 620.167 1384.65 629.188C1376.56 634.788 1372.52 641.321 1372.52 648.787C1372.52 655.32 1376.87 663.408 1385.58 673.052C1397.4 686.429 1403.31 699.339 1403.31 711.783C1403.31 727.027 1397.64 740.015 1386.28 750.747C1374.93 761.48 1360.07 766.846 1341.72 766.846C1322.12 766.846 1305.71 760.936 1292.49 749.114C1279.27 737.293 1272.65 723.449 1272.65 707.583C1272.65 685.185 1281.52 663.797 1299.25 643.421C1316.99 623.044 1341.72 607.412 1373.45 596.524C1405.18 585.636 1438.16 580.191 1472.38 580.191C1513.75 580.191 1546.49 588.98 1570.6 606.556C1594.71 624.133 1610.34 643.187 1617.5 663.72C1621.86 676.785 1624.03 706.806 1624.03 753.78L1624.03 923.17C1624.03 943.08 1624.81 955.601 1626.37 960.734C1627.92 965.867 1630.25 969.678 1633.37 972.167C1636.48 974.655 1640.05 975.9 1644.1 975.9C1652.19 975.9 1660.43 970.145 1668.83 958.634L1682.83 969.833C1667.27 992.854 1651.18 1009.58 1634.53 1020C1617.89 1030.42 1598.99 1035.63 1577.84 1035.63C1552.95 1035.63 1533.51 1029.8 1519.51 1018.13C1505.51 1006.46 1496.95 988.81 1493.84 965.167ZM1493.84 931.103L1493.84 785.045C1456.2 807.133 1428.2 830.776 1409.85 855.974C1397.71 872.773 1391.65 889.727 1391.65 906.837C1391.65 921.148 1396.78 933.747 1407.05 944.635C1414.82 953.034 1425.71 957.234 1439.71 957.234C1455.27 957.234 1473.31 948.524 1493.84 931.103Z" fill="#C9A96E" fill-rule="nonzero" opacity="1" stroke="none"></path>
<path d="M1904.01 433.667L1904.01 593.257L2007.61 593.257L2007.61 639.454L1904.01 639.454L1904.01 908.704C1904.01 933.902 1905.18 950.157 1907.51 957.468C1909.85 964.778 1913.97 970.689 1919.88 975.2C1925.79 979.711 1931.24 981.966 1936.21 981.966C1956.43 981.966 1975.57 966.567 1993.61 935.769L2007.61 946.035C1982.41 1005.76 1941.5 1035.63 1884.88 1035.63C1857.2 1035.63 1833.79 1027.93 1814.65 1012.53C1795.52 997.132 1783.31 979.944 1778.02 960.967C1774.91 950.39 1773.36 921.77 1773.36 875.106L1773.36 639.454L1716.43 639.454L1716.43 623.122C1755.62 595.435 1788.99 566.348 1816.52 535.861C1844.05 505.374 1868.08 471.31 1888.62 433.667L1904.01 433.667Z" fill="#C9A96E" fill-rule="nonzero" opacity="1" stroke="none"></path>
<path d="M2154.13 381.871C2174.35 381.871 2191.46 388.948 2205.46 403.103C2219.46 417.257 2226.46 434.29 2226.46 454.199C2226.46 474.109 2219.38 491.064 2205.23 505.063C2191.07 519.062 2174.04 526.062 2154.13 526.062C2134.22 526.062 2117.27 519.062 2103.27 505.063C2089.27 491.064 2082.27 474.109 2082.27 454.199C2082.27 434.29 2089.27 417.257 2103.27 403.103C2117.27 388.948 2134.22 381.871 2154.13 381.871ZM2219.46 593.257L2219.46 939.035C2219.46 969.833 2223.04 989.51 2230.19 998.065C2237.35 1006.62 2251.35 1011.52 2272.19 1012.76L2272.19 1029.56L2036.54 1029.56L2036.54 1012.76C2055.83 1012.14 2070.14 1006.54 2079.47 995.965C2085.69 988.81 2088.8 969.833 2088.8 939.035L2088.8 684.252C2088.8 653.454 2085.23 633.777 2078.07 625.222C2070.92 616.667 2057.07 611.767 2036.54 610.523L2036.54 593.257L2219.46 593.257Z" fill="#C9A96E" fill-rule="nonzero" opacity="1" stroke="none"></path>
<path d="M2572.71 762.18L2648.3 905.904C2674.43 955.99 2695.12 987.721 2710.36 1001.1C2718.76 1008.25 2730.27 1012.14 2744.89 1012.76L2744.89 1029.56L2501.78 1029.56L2501.78 1012.76C2520.75 1011.21 2532.5 1008.72 2537.01 1005.3C2541.52 1001.88 2543.77 997.209 2543.77 991.299C2543.77 982.588 2538.8 968.9 2528.84 950.235L2491.04 879.306L2458.85 926.436C2444.23 947.901 2435.98 960.656 2434.11 964.7C2431.63 970.611 2430.38 975.9 2430.38 980.566C2430.38 987.721 2431.86 993.71 2434.81 998.532C2437.77 1003.35 2441.81 1006.93 2446.95 1009.26C2452.08 1011.6 2461.49 1012.76 2475.18 1012.76L2475.18 1029.56L2304.39 1029.56L2304.39 1012.76C2325.54 1012.76 2344.91 1006.93 2362.49 995.265C2380.06 983.599 2405.65 953.034 2439.25 903.571L2475.18 850.374L2400.05 711.317C2375.47 665.897 2357.12 638.054 2344.99 627.788C2332.85 617.522 2319.32 611.767 2304.39 610.523L2304.39 593.257L2546.11 593.257L2546.11 610.523L2533.51 610.99L2509.24 619.389C2506.75 621.567 2505.51 625.144 2505.51 630.122C2505.51 634.788 2506.29 639.61 2507.84 644.587C2508.78 646.765 2513.13 655.165 2520.91 669.786L2554.97 733.248L2572.71 708.05C2597.59 673.83 2610.04 649.876 2610.04 636.188C2610.04 629.655 2607.31 624.133 2601.87 619.622C2596.43 615.111 2586.7 612.078 2572.71 610.523L2572.71 593.257L2727.16 593.257L2727.16 610.523C2708.19 611.145 2690.45 616.978 2673.97 628.022C2657.48 639.066 2638.97 660.453 2618.44 692.184L2572.71 762.18Z" fill="#C9A96E" fill-rule="nonzero" opacity="1" stroke="none"></path>
</g>
</g>
</svg>